<svg width="32" height="32" viewBox="0 0 32 32" fill="none" xmlns="http://www.w3.org/2000/svg">
<path d="M0 16C0 7.16344 7.16344 0 16 0V0C24.8366 0 32 7.16344 32 16V16C32 24.8366 24.8366 32 16 32V32C7.16344 32 0 24.8366 0 16V16Z" fill="#D7CDCC"/>
<path d="M26.0585 14.1546C26.1803 14.8419 26.241 15.5383 26.24 16.2358C26.24 19.3513 25.104 21.9854 23.127 23.7684H23.1296C21.4007 25.3338 19.0242 26.24 16.2063 26.24C13.4358 26.24 10.7787 25.1612 8.81966 23.2409C6.8606 21.3206 5.76001 18.7161 5.76001 16.0003C5.76001 13.2846 6.8606 10.6801 8.81966 8.7598C10.7787 6.83949 13.4358 5.76068 16.2063 5.76068C18.7995 5.73091 21.3039 6.68587 23.1949 8.42555L20.2125 11.349C19.1344 10.3416 17.6956 9.78997 16.2063 9.81302C13.4811 9.81302 11.166 11.6152 10.3407 14.042C9.90315 15.3136 9.90315 16.6909 10.3407 17.9625H10.3446C11.1738 20.3855 13.4851 22.1877 16.2102 22.1877C17.6179 22.1877 18.827 21.8344 19.7646 21.2098H19.7607C20.3051 20.8562 20.7707 20.3983 21.1296 19.8635C21.4885 19.3287 21.7331 18.7282 21.8486 18.0982H16.2063V14.1559H26.0585V14.1546Z" fill="black"/>
</svg>
