<svg width="32" height="32" viewBox="0 0 32 32" fill="none" xmlns="http://www.w3.org/2000/svg">
<path d="M0 16C0 7.16344 7.16344 0 16 0V0C24.8366 0 32 7.16344 32 16V16C32 24.8366 24.8366 32 16 32V32C7.16344 32 0 24.8366 0 16V16Z" fill="#D7CDCC"/>
<path d="M17.1049 25C21.978 25 25 23.0164 25 19.8485C25 17.4653 22.7231 15.6825 19.6224 15.4945V15.3942C20.8099 15.2532 21.8943 14.7821 22.6801 14.0661C23.4659 13.35 23.9013 12.436 23.9078 11.4891C23.9078 8.73358 21.2191 7 16.9337 7H7V25H17.1049ZM11.7782 9.80657H15.7027C17.931 9.80657 19.2129 10.6296 19.2129 12.0766C19.2129 13.5985 17.7574 14.4854 15.2098 14.4854H11.7782V9.80474V9.80657ZM11.7782 22.1934V16.9672H15.7813C18.5974 16.9672 20.1315 17.865 20.1315 19.5493C20.1315 21.2701 18.6437 22.1934 15.8924 22.1934H11.7759H11.7782Z" fill="black"/>
</svg>
