<svg width="32" height="32" viewBox="0 0 32 32" fill="none" xmlns="http://www.w3.org/2000/svg">
<g clip-path="url(#clip0_76:171)">
<path d="M0 16C0 7.16344 7.16344 0 16 0V0C24.8366 0 32 7.16344 32 16V16C32 24.8366 24.8366 32 16 32V32C7.16344 32 0 24.8366 0 16V16Z" fill="#D7CDCC"/>
<path d="M9.48377 13.58C9.48377 12.4067 9.1171 11.82 8.38377 11.82C8.22377 11.82 8.0771 11.8267 7.94377 11.84C7.82377 11.8533 7.75044 11.9 7.72377 11.98C7.67044 12.0867 7.64377 12.3533 7.64377 12.78V15.1H8.34377C8.6771 15.1 8.95044 14.9733 9.16377 14.72C9.3771 14.4533 9.48377 14.0733 9.48377 13.58ZM6.74377 11.32L8.76377 11.28C9.47044 11.28 10.0704 11.44 10.5638 11.76C11.1504 12.1333 11.4438 12.6733 11.4438 13.38C11.4438 14.0333 11.0904 14.5667 10.3838 14.98C10.2238 15.0733 10.1038 15.1333 10.0238 15.16C9.9571 15.1867 9.92377 15.2067 9.92377 15.22C9.92377 15.2333 9.96377 15.2467 10.0438 15.26C10.1371 15.2733 10.3038 15.3333 10.5438 15.44C10.7971 15.5333 11.0304 15.68 11.2438 15.88C11.7904 16.3467 12.0638 16.8733 12.0638 17.46C12.0638 17.9 11.9371 18.3067 11.6838 18.68C11.4304 19.0533 11.1038 19.36 10.7038 19.6C10.3038 19.8267 9.86377 19.96 9.38377 20C8.90377 20.04 8.50377 20.0533 8.18377 20.04C7.86377 20.04 7.56377 20.04 7.28377 20.04C6.47044 20.04 5.6571 20.04 4.84377 20.04C4.8171 20 4.80377 19.92 4.80377 19.8C4.80377 19.68 4.8171 19.6 4.84377 19.56C4.8971 19.56 5.01044 19.5467 5.18377 19.52C5.4771 19.48 5.65044 19.4133 5.70377 19.32C5.77044 19.16 5.80377 18.7467 5.80377 18.08V13.22C5.80377 12.58 5.77044 12.1667 5.70377 11.98C5.61044 11.8467 5.32377 11.78 4.84377 11.78C4.8171 11.7267 4.80377 11.64 4.80377 11.52C4.80377 11.4 4.8171 11.32 4.84377 11.28C5.15044 11.3067 5.47044 11.32 5.80377 11.32H6.74377ZM7.64377 18.56C7.64377 18.9733 7.6771 19.2267 7.74377 19.32C7.81044 19.4 7.92377 19.4467 8.08377 19.46C8.24377 19.4733 8.40377 19.48 8.56377 19.48C8.7371 19.48 8.90377 19.4533 9.06377 19.4C9.2371 19.3333 9.39044 19.2267 9.52377 19.08C9.84377 18.7733 10.0038 18.3067 10.0038 17.68C10.0038 16.76 9.71044 16.1333 9.12377 15.8C8.91044 15.68 8.65044 15.62 8.34377 15.62H7.64377V18.56ZM16.1179 20.06C15.4512 19.9933 14.8445 19.96 14.2979 19.96C13.7645 19.96 13.1645 19.9933 12.4979 20.06C12.4712 20.02 12.4579 19.94 12.4579 19.82C12.4579 19.7 12.4712 19.6133 12.4979 19.56C12.7779 19.56 12.9845 19.5333 13.1179 19.48C13.2512 19.4133 13.3245 19.36 13.3379 19.32C13.4045 19.1867 13.4379 19.02 13.4379 18.82C13.4512 18.62 13.4579 18.3733 13.4579 18.08V12.64C13.4579 12.3467 13.4379 12.16 13.3979 12.08C13.3579 11.9867 13.2979 11.9267 13.2179 11.9C13.1512 11.8733 13.0779 11.8533 12.9979 11.84C12.8112 11.7867 12.6712 11.76 12.5779 11.76C12.5512 11.76 12.5312 11.7 12.5179 11.58C12.5179 11.4467 12.5379 11.3667 12.5779 11.34C13.4712 11.2467 14.2512 11.0933 14.9179 10.88C15.0379 10.84 15.1045 10.82 15.1179 10.82C15.2112 10.8467 15.2779 10.9267 15.3179 11.06C15.2912 11.22 15.2645 11.3733 15.2379 11.52C15.1979 11.72 15.1779 12.0133 15.1779 12.4V18.08C15.1779 18.7467 15.1979 19.1333 15.2379 19.24C15.2779 19.3333 15.3312 19.4 15.3979 19.44C15.4779 19.4667 15.5579 19.4933 15.6379 19.52C15.7845 19.5467 15.9445 19.56 16.1179 19.56C16.1445 19.6133 16.1579 19.7 16.1579 19.82C16.1579 19.94 16.1445 20.02 16.1179 20.06ZM19.051 14.64C18.451 14.64 18.1176 15.1333 18.051 16.12C18.0243 16.3867 18.011 16.6533 18.011 16.92C18.011 17.1867 18.031 17.48 18.071 17.8C18.1243 18.1067 18.211 18.3867 18.331 18.64C18.5843 19.24 18.9243 19.54 19.351 19.54C19.9776 19.54 20.331 19.0533 20.411 18.08C20.4243 17.8267 20.431 17.5667 20.431 17.3C20.431 17.0333 20.4043 16.74 20.351 16.42C20.2976 16.1 20.211 15.8133 20.091 15.56C19.8376 14.9467 19.491 14.64 19.051 14.64ZM19.211 14.1C19.6643 14.1 20.0776 14.1733 20.451 14.32C20.8376 14.4667 21.171 14.6733 21.451 14.94C22.0243 15.5 22.311 16.2 22.311 17.04C22.311 17.8667 22.011 18.5867 21.411 19.2C20.8376 19.8 20.111 20.1 19.231 20.1C18.311 20.1 17.5643 19.8133 16.991 19.24C16.4176 18.6667 16.131 17.9667 16.131 17.14C16.131 16.3267 16.4243 15.6133 17.011 15C17.5976 14.4 18.331 14.1 19.211 14.1ZM28.1774 15.16C27.8174 15.1333 27.5907 15.1133 27.4974 15.1C27.4041 15.0867 27.3574 15.0933 27.3574 15.12C27.5441 15.4 27.6374 15.6933 27.6374 16C27.6374 16.3067 27.5774 16.58 27.4574 16.82C27.3374 17.06 27.1641 17.2667 26.9374 17.44C26.4574 17.84 25.8907 18.04 25.2374 18.04C24.9841 18.04 24.7574 18.02 24.5574 17.98C24.4907 18.0467 24.4174 18.1133 24.3374 18.18C24.2707 18.2467 24.2374 18.3267 24.2374 18.42C24.2374 18.5 24.3041 18.5733 24.4374 18.64C24.5707 18.6933 24.7374 18.72 24.9374 18.72C25.1507 18.72 25.4241 18.72 25.7574 18.72C26.1041 18.7067 26.4107 18.7133 26.6774 18.74C26.9441 18.7533 27.1841 18.82 27.3974 18.94C27.6241 19.0467 27.8107 19.1733 27.9574 19.32C28.2374 19.6 28.3774 19.9133 28.3774 20.26C28.3774 20.6067 28.2774 20.9467 28.0774 21.28C27.8774 21.6133 27.6107 21.8933 27.2774 22.12C26.5574 22.6267 25.7441 22.88 24.8374 22.88C24.1841 22.88 23.6507 22.74 23.2374 22.46C22.8374 22.18 22.6374 21.8133 22.6374 21.36C22.6374 21.0933 22.7574 20.84 22.9974 20.6C23.2507 20.3733 23.5041 20.2 23.7574 20.08C23.5307 20.0133 23.3374 19.8533 23.1774 19.6C23.0307 19.3333 22.9574 19.06 22.9574 18.78C22.9574 18.5667 23.3241 18.2467 24.0574 17.82C23.6707 17.6733 23.3641 17.4533 23.1374 17.16C22.9241 16.8533 22.8174 16.5333 22.8174 16.2C22.8174 15.8667 22.8774 15.5867 22.9974 15.36C23.1307 15.12 23.3041 14.9067 23.5174 14.72C23.9707 14.3467 24.5374 14.16 25.2174 14.16C25.8174 14.16 26.2841 14.2667 26.6174 14.48C26.6441 14.5067 26.6707 14.52 26.6974 14.52L28.3574 14.36C28.4507 14.4133 28.4974 14.4667 28.4974 14.52C28.4974 14.56 28.4574 14.6667 28.3774 14.84C28.3107 15.0133 28.2441 15.12 28.1774 15.16ZM24.2974 20.18C24.1507 20.3667 24.0774 20.56 24.0774 20.76C24.0774 21.2 24.2241 21.54 24.5174 21.78C24.8107 22.02 25.1507 22.14 25.5374 22.14C25.9374 22.14 26.2374 22.1 26.4374 22.02C26.6374 21.9533 26.7974 21.8667 26.9174 21.76C27.1174 21.5867 27.2174 21.3533 27.2174 21.06C27.2174 20.7667 27.0774 20.5467 26.7974 20.4C26.5174 20.2533 26.1641 20.18 25.7374 20.18H24.2974ZM25.1574 14.64C24.7307 14.64 24.4907 14.92 24.4374 15.48C24.4241 15.64 24.4174 15.8067 24.4174 15.98C24.4174 16.14 24.4307 16.32 24.4574 16.52C24.4974 16.7067 24.5507 16.88 24.6174 17.04C24.7907 17.3867 25.0374 17.56 25.3574 17.56C25.7841 17.56 26.0041 17.2667 26.0174 16.68C26.0307 16.5333 26.0374 16.38 26.0374 16.22C26.0374 16.06 26.0241 15.8867 25.9974 15.7C25.9707 15.5 25.9241 15.32 25.8574 15.16C25.6974 14.8133 25.4641 14.64 25.1574 14.64Z" fill="black"/>
</g>
<defs>
<clipPath id="clip0_76:171">
<path d="M0 16C0 7.16344 7.16344 0 16 0V0C24.8366 0 32 7.16344 32 16V16C32 24.8366 24.8366 32 16 32V32C7.16344 32 0 24.8366 0 16V16Z" fill="white"/>
</clipPath>
</defs>
</svg>
