<svg width="32" height="32" viewBox="0 0 32 32" fill="none" xmlns="http://www.w3.org/2000/svg">
<path d="M0 16C0 7.16344 7.16344 0 16 0V0C24.8366 0 32 7.16344 32 16V16C32 24.8366 24.8366 32 16 32V32C7.16344 32 0 24.8366 0 16V16Z" fill="#D7CDCC"/>
<g clip-path="url(#clip0_76:131)">
<path d="M16 5.76C10.3424 5.76 5.76001 10.3424 5.76001 16C5.76001 20.5312 8.69121 24.3584 12.7616 25.7152C13.2736 25.8048 13.4656 25.4976 13.4656 25.2288C13.4656 24.9856 13.4528 24.1792 13.4528 23.3216C10.88 23.7952 10.2144 22.6944 10.0096 22.1184C9.89441 21.824 9.39521 20.9152 8.96001 20.672C8.60161 20.48 8.08961 20.0064 8.94721 19.9936C9.75361 19.9808 10.3296 20.736 10.5216 21.0432C11.4432 22.592 12.9152 22.1568 13.504 21.888C13.5936 21.2224 13.8624 20.7744 14.1568 20.5184C11.8784 20.2624 9.49761 19.3792 9.49761 15.4624C9.49761 14.3488 9.89441 13.4272 10.5472 12.7104C10.4448 12.4544 10.0864 11.4048 10.6496 9.9968C10.6496 9.9968 11.5072 9.728 13.4656 11.0464C14.2848 10.816 15.1552 10.7008 16.0256 10.7008C16.896 10.7008 17.7664 10.816 18.5856 11.0464C20.544 9.7152 21.4016 9.9968 21.4016 9.9968C21.9648 11.4048 21.6064 12.4544 21.504 12.7104C22.1568 13.4272 22.5536 14.336 22.5536 15.4624C22.5536 19.392 20.16 20.2624 17.8816 20.5184C18.2528 20.8384 18.5728 21.4528 18.5728 22.4128C18.5728 23.7824 18.56 24.8832 18.56 25.2288C18.56 25.4976 18.752 25.8176 19.264 25.7152C21.2969 25.0291 23.0635 23.7227 24.3149 21.9799C25.5664 20.237 26.2397 18.1456 26.24 16C26.24 10.3424 21.6576 5.76 16 5.76Z" fill="black"/>
</g>
<defs>
<clipPath id="clip0_76:131">
<rect width="20.48" height="20.48" fill="white" transform="translate(5.76001 5.76)"/>
</clipPath>
</defs>
</svg>
