<svg width="32" height="32" viewBox="0 0 32 32" fill="none" xmlns="http://www.w3.org/2000/svg">
<path d="M0 16C0 7.16344 7.16344 0 16 0V0C24.8366 0 32 7.16344 32 16V16C32 24.8366 24.8366 32 16 32V32C7.16344 32 0 24.8366 0 16V16Z" fill="#D7CDCC"/>
<path d="M6.0625 9.94375C6.18852 9.39155 6.49832 8.89852 6.94115 8.54539C7.38398 8.19225 7.93361 7.99996 8.5 8H23.5C24.0664 7.99996 24.616 8.19225 25.0588 8.54539C25.5017 8.89852 25.8115 9.39155 25.9375 9.94375L16 16.0175L6.0625 9.94375ZM6 11.3712V20.2512L13.2537 15.8037L6 11.3712ZM14.4513 16.5375L6.23875 21.5712C6.44166 21.9991 6.76191 22.3605 7.16223 22.6135C7.56255 22.8664 8.02647 23.0005 8.5 23H23.5C23.9735 23.0001 24.4372 22.8658 24.8373 22.6126C25.2374 22.3595 25.5574 21.9979 25.76 21.57L17.5475 16.5362L16 17.4825L14.4513 16.5362V16.5375ZM18.7462 15.805L26 20.2512V11.3712L18.7462 15.8037V15.805Z" fill="black"/>
</svg>
