<svg width="32" height="32" viewBox="0 0 32 32" fill="none" xmlns="http://www.w3.org/2000/svg">
<path d="M0 16C0 7.16344 7.16344 0 16 0V0C24.8366 0 32 7.16344 32 16V16C32 24.8366 24.8366 32 16 32V32C7.16344 32 0 24.8366 0 16V16Z" fill="#D7CDCC"/>
<g clip-path="url(#clip0_76:133)">
<path d="M21.6474 24.4122V18.9312H23.4752V26.24H7.04004V18.9312H8.86788V24.4122H21.6474V24.4122Z" fill="black"/>
<path d="M10.697 22.5856H19.8324V20.7578H10.697V22.5856ZM18.8852 5.76L17.4183 6.85056L22.8711 14.1811L24.338 13.0906L18.8852 5.76ZM14.354 10.0826L21.3735 15.9283L22.5421 14.5242L15.5226 8.6784L14.3527 10.0826H14.354ZM12.0602 14.144L20.3418 18.0006L21.1137 16.3443L12.8321 12.4877L12.0602 14.144V14.144ZM10.8762 18.4243L19.817 20.3046L20.1933 18.5152L11.2525 16.6362L10.8762 18.4243V18.4243Z" fill="black"/>
</g>
<defs>
<clipPath id="clip0_76:133">
<rect width="20.48" height="20.48" fill="white" transform="translate(5.76001 5.76)"/>
</clipPath>
</defs>
</svg>
